<svg width="109" height="20" viewBox="0 0 109 20" fill="none" xmlns="http://www.w3.org/2000/svg">
<path d="M32.8779 16.5676H35.3795L35.9612 8.86955C36.0194 7.95819 35.9806 6.71719 35.9806 6.71719H36.0194C36.0194 6.71719 36.4459 8.07453 36.7756 8.86955L38.9861 14.202H41.1772L43.4072 8.86955C43.7368 8.07453 44.144 6.73658 44.144 6.73658H44.1828C44.1828 6.73658 44.144 7.95819 44.2022 8.86955L44.7839 16.5676H47.2659L46.1606 2.80029H43.4847L40.7894 9.60639C40.4792 10.4208 40.1108 11.623 40.1108 11.623H40.072C40.072 11.623 39.6842 10.4208 39.3739 9.60639L36.6786 2.80029H34.0026L32.8779 16.5676ZM48.4666 11.623C48.4666 14.4346 50.5026 16.8003 53.7796 16.8003C56.2422 16.8003 57.7547 15.3848 57.7547 15.3848L56.8046 13.6202C56.8046 13.6202 55.5442 14.7061 53.9542 14.7061C52.4805 14.7061 51.1425 13.8141 50.9874 12.0884H57.8129C57.8129 12.0884 57.8711 11.4291 57.8711 11.1382C57.8711 8.52051 56.3392 6.44572 53.4888 6.44572C50.5414 6.44572 48.4666 8.57869 48.4666 11.623ZM51.065 10.4014C51.2976 9.12162 52.1702 8.346 53.4306 8.346C54.5165 8.346 55.3503 9.06345 55.3891 10.4014H51.065ZM59.5524 12.9416C59.5524 16.2574 62.2865 16.6646 63.6633 16.6646C64.1286 16.6646 64.4195 16.6064 64.4195 16.6064V14.454C64.4195 14.454 64.245 14.4928 63.9735 14.4928C63.2948 14.4928 62.015 14.2601 62.015 12.6313V8.79198H64.2644V6.83353H62.015V3.98312H59.6106V6.83353H58.2727V8.79198H59.5524V12.9416ZM65.6594 16.5676H68.122V12.6507C68.122 12.069 68.1801 11.5261 68.3353 11.0413C68.8006 9.56761 69.9835 8.9665 71.0306 8.9665C71.3602 8.9665 71.6123 9.00528 71.6123 9.00528V6.58146C71.6123 6.58146 71.399 6.54268 71.1663 6.54268C69.6538 6.54268 68.471 7.66733 68.025 9.08284H67.9862C67.9862 9.08284 68.025 8.7532 68.025 8.38478V6.67841H65.6594V16.5676ZM71.7596 11.623C71.7596 14.6673 74.1834 16.8003 77.2083 16.8003C80.2139 16.8003 82.6377 14.6673 82.6377 11.623C82.6377 8.59808 80.2139 6.44572 77.1889 6.44572C74.1834 6.44572 71.7596 8.59808 71.7596 11.623ZM74.261 11.623C74.261 9.80029 75.5989 8.53991 77.2083 8.53991C78.7983 8.53991 80.1363 9.80029 80.1363 11.623C80.1363 13.4651 78.7983 14.7061 77.2083 14.7061C75.5989 14.7061 74.261 13.4651 74.261 11.623ZM83.8399 16.5676H86.3025V12.0302C86.3025 11.5648 86.3413 11.1189 86.477 10.7117C86.8454 9.52882 87.815 8.69503 89.1335 8.69503C90.3939 8.69503 90.7042 9.50943 90.7042 10.7117V16.5676H93.1474V10.2075C93.1474 7.58977 91.9064 6.44572 89.7153 6.44572C87.718 6.44572 86.6321 7.66733 86.2056 8.50112H86.1668C86.1668 8.50112 86.2056 8.19088 86.2056 7.82245V6.67841H83.8399V16.5676ZM94.9559 4.99143H97.3991V2.80029H94.9559V4.99143ZM94.9559 16.5676H97.4185V6.67841H94.9559V16.5676ZM98.6323 11.623C98.6323 14.4928 100.726 16.8003 104.004 16.8003C106.66 16.8003 108.076 15.1909 108.076 15.1909L107.125 13.4457C107.125 13.4457 105.884 14.7061 104.217 14.7061C102.336 14.7061 101.134 13.2712 101.134 11.6036C101.134 9.91664 102.317 8.53991 104.139 8.53991C105.69 8.53991 106.718 9.60639 106.718 9.60639L107.804 7.91941C107.804 7.91941 106.582 6.44572 104.004 6.44572C100.726 6.44572 98.6323 8.81137 98.6323 11.623Z" fill="white"/>
<g clip-path="url(#clip0_15542_26834)">
<g filter="url(#filter0_i_15542_26834)">
<path opacity="0.5" d="M16.8331 13.5L13.0031 1.23185C12.7743 0.499032 12.0957 0 11.328 0C10.3936 0 9.62302 0.732271 9.57545 1.6655L9.1082 10.8354C9.09159 11.1611 9.13088 11.4873 9.22434 11.7997L11.3035 18.75C11.4844 19.3548 12.0409 19.7691 12.6721 19.7691H14.6048C15.2266 19.7691 15.777 19.3669 15.9659 18.7745L16.8253 16.0791C17.0927 15.2406 17.0954 14.3401 16.8331 13.5Z" fill="white"/>
<path d="M16.8331 13.5L13.0031 1.23185C12.7743 0.499032 12.0957 0 11.328 0C10.3936 0 9.62302 0.732271 9.57545 1.6655L9.1082 10.8354C9.09159 11.1611 9.13088 11.4873 9.22434 11.7997L11.3035 18.75C11.4844 19.3548 12.0409 19.7691 12.6721 19.7691H14.6048C15.2266 19.7691 15.777 19.3669 15.9659 18.7745L16.8253 16.0791C17.0927 15.2406 17.0954 14.3401 16.8331 13.5Z" fill="url(#paint0_linear_15542_26834)"/>
</g>
<path d="M22.0356 0.991736L27.4671 17.9037C27.7633 18.8258 27.0755 19.7691 26.107 19.7691H22.113C21.4905 19.7691 20.9397 19.3661 20.7513 18.7729L15.3815 1.8609C15.089 0.939718 15.7766 0 16.7431 0H20.6754C21.2961 0 21.8457 0.400782 22.0356 0.991736Z" fill="white"/>
<path d="M7.46489 0H11.3987C12.362 0 13.0491 0.933889 12.7626 1.85355L7.44792 18.9098C7.26192 19.5068 6.70931 19.9134 6.08403 19.9134H2.15027C1.18699 19.9134 0.499809 18.9795 0.786372 18.0599L6.10099 1.00359C6.28703 0.406629 6.83964 0 7.46489 0Z" fill="white"/>
</g>
<defs>
<filter id="filter0_i_15542_26834" x="5.10449" y="0" width="11.9238" height="22.7691" filterUnits="userSpaceOnUse" color-interpolation-filters="sRGB">
<feFlood flood-opacity="0" result="BackgroundImageFix"/>
<feBlend mode="normal" in="SourceGraphic" in2="BackgroundImageFix" result="shape"/>
<feColorMatrix in="SourceAlpha" type="matrix" values="0 0 0 0 0 0 0 0 0 0 0 0 0 0 0 0 0 0 127 0" result="hardAlpha"/>
<feOffset dx="-4" dy="3"/>
<feGaussianBlur stdDeviation="2"/>
<feComposite in2="hardAlpha" operator="arithmetic" k2="-1" k3="1"/>
<feColorMatrix type="matrix" values="0 0 0 0 0.904167 0 0 0 0 0.892865 0 0 0 0 0.892865 0 0 0 0.4 0"/>
<feBlend mode="normal" in2="shape" result="effect1_innerShadow_15542_26834"/>
</filter>
<linearGradient id="paint0_linear_15542_26834" x1="10.5658" y1="8.75" x2="14.6729" y2="9.82143" gradientUnits="userSpaceOnUse">
<stop stop-opacity="0.25"/>
<stop offset="0.911458" stop-color="white" stop-opacity="0"/>
</linearGradient>
<clipPath id="clip0_15542_26834">
<rect width="27.8571" height="20" fill="white" transform="translate(0.208984)"/>
</clipPath>
</defs>
</svg>
