<svg width="18" height="18" viewBox="0 0 18 18" fill="none" xmlns="http://www.w3.org/2000/svg">
<path d="M12.8025 3H5.1975C4.21686 3 3.27639 3.38956 2.58297 4.08297C1.88956 4.77639 1.5 5.71686 1.5 6.6975V11.3025C1.5 12.2831 1.88956 13.2236 2.58297 13.917C3.27639 14.6104 4.21686 15 5.1975 15H12.8025C13.2881 15 13.7689 14.9044 14.2175 14.7185C14.6661 14.5327 15.0737 14.2604 15.417 13.917C15.7604 13.5737 16.0327 13.1661 16.2185 12.7175C16.4044 12.2689 16.5 11.7881 16.5 11.3025V6.6975C16.5 6.21194 16.4044 5.73113 16.2185 5.28253C16.0327 4.83393 15.7604 4.42632 15.417 4.08297C15.0737 3.73963 14.6661 3.46727 14.2175 3.28146C13.7689 3.09564 13.2881 3 12.8025 3ZM10.5525 9.6825L8.25 11.0925C8.12869 11.1662 7.98987 11.206 7.84796 11.2079C7.70605 11.2097 7.56622 11.1736 7.443 11.1032C7.31978 11.0328 7.21765 10.9307 7.14722 10.8074C7.0768 10.6842 7.04064 10.5444 7.0425 10.4025V7.5975C7.04064 7.45559 7.0768 7.31577 7.14722 7.19256C7.21765 7.06934 7.31978 6.96723 7.443 6.89681C7.56622 6.8264 7.70605 6.79026 7.84796 6.79214C7.98987 6.79402 8.12869 6.83385 8.25 6.9075L10.59 8.3175C10.7077 8.38868 10.8049 8.48919 10.8721 8.60919C10.9394 8.72919 10.9743 8.86458 10.9736 9.00213C10.9728 9.13968 10.9364 9.27467 10.8678 9.39393C10.7993 9.51318 10.701 9.61261 10.5825 9.6825H10.5525Z" fill="#F1416C"/>
</svg>
